%TF.GenerationSoftware,KiCad,Pcbnew,7.0.7*%
%TF.CreationDate,2023-12-05T02:10:34+05:30*%
%TF.ProjectId,VR 5v and 9v,56522035-7620-4616-9e64-2039762e6b69,rev?*%
%TF.SameCoordinates,Original*%
%TF.FileFunction,Drillmap*%
%TF.FilePolarity,Positive*%
%FSLAX45Y45*%
G04 Gerber Fmt 4.5, Leading zero omitted, Abs format (unit mm)*
G04 Created by KiCad (PCBNEW 7.0.7) date 2023-12-05 02:10:34*
%MOMM*%
%LPD*%
G01*
G04 APERTURE LIST*
%ADD10C,0.100000*%
%ADD11C,0.200000*%
G04 APERTURE END LIST*
D10*
X15724000Y-7306000D02*
G75*
G03*
X15627791Y-7215800I-96210J-6210D01*
G01*
X15701253Y-11554791D02*
X15724000Y-7306000D01*
X12167209Y-11651253D02*
X15604791Y-11651253D01*
X12070747Y-11554791D02*
G75*
G03*
X12167209Y-11651253I96463J1D01*
G01*
X15604791Y-11651253D02*
G75*
G03*
X15701253Y-11554791I-1J96463D01*
G01*
X15627000Y-7216000D02*
X12131000Y-7229000D01*
X12034538Y-7325462D02*
X12070747Y-11554791D01*
X12131000Y-7228998D02*
G75*
G03*
X12034538Y-7325462I0J-96462D01*
G01*
D11*
X12290314Y-11967737D02*
X12290314Y-11767737D01*
X12290314Y-11767737D02*
X12337933Y-11767737D01*
X12337933Y-11767737D02*
X12366505Y-11777261D01*
X12366505Y-11777261D02*
X12385552Y-11796308D01*
X12385552Y-11796308D02*
X12395076Y-11815356D01*
X12395076Y-11815356D02*
X12404600Y-11853451D01*
X12404600Y-11853451D02*
X12404600Y-11882023D01*
X12404600Y-11882023D02*
X12395076Y-11920118D01*
X12395076Y-11920118D02*
X12385552Y-11939165D01*
X12385552Y-11939165D02*
X12366505Y-11958213D01*
X12366505Y-11958213D02*
X12337933Y-11967737D01*
X12337933Y-11967737D02*
X12290314Y-11967737D01*
X12490314Y-11967737D02*
X12490314Y-11834404D01*
X12490314Y-11872499D02*
X12499838Y-11853451D01*
X12499838Y-11853451D02*
X12509362Y-11843927D01*
X12509362Y-11843927D02*
X12528410Y-11834404D01*
X12528410Y-11834404D02*
X12547457Y-11834404D01*
X12614124Y-11967737D02*
X12614124Y-11834404D01*
X12614124Y-11767737D02*
X12604600Y-11777261D01*
X12604600Y-11777261D02*
X12614124Y-11786785D01*
X12614124Y-11786785D02*
X12623648Y-11777261D01*
X12623648Y-11777261D02*
X12614124Y-11767737D01*
X12614124Y-11767737D02*
X12614124Y-11786785D01*
X12737933Y-11967737D02*
X12718886Y-11958213D01*
X12718886Y-11958213D02*
X12709362Y-11939165D01*
X12709362Y-11939165D02*
X12709362Y-11767737D01*
X12842695Y-11967737D02*
X12823648Y-11958213D01*
X12823648Y-11958213D02*
X12814124Y-11939165D01*
X12814124Y-11939165D02*
X12814124Y-11767737D01*
X13071267Y-11967737D02*
X13071267Y-11767737D01*
X13071267Y-11767737D02*
X13137933Y-11910594D01*
X13137933Y-11910594D02*
X13204600Y-11767737D01*
X13204600Y-11767737D02*
X13204600Y-11967737D01*
X13385552Y-11967737D02*
X13385552Y-11862975D01*
X13385552Y-11862975D02*
X13376029Y-11843927D01*
X13376029Y-11843927D02*
X13356981Y-11834404D01*
X13356981Y-11834404D02*
X13318886Y-11834404D01*
X13318886Y-11834404D02*
X13299838Y-11843927D01*
X13385552Y-11958213D02*
X13366505Y-11967737D01*
X13366505Y-11967737D02*
X13318886Y-11967737D01*
X13318886Y-11967737D02*
X13299838Y-11958213D01*
X13299838Y-11958213D02*
X13290314Y-11939165D01*
X13290314Y-11939165D02*
X13290314Y-11920118D01*
X13290314Y-11920118D02*
X13299838Y-11901070D01*
X13299838Y-11901070D02*
X13318886Y-11891546D01*
X13318886Y-11891546D02*
X13366505Y-11891546D01*
X13366505Y-11891546D02*
X13385552Y-11882023D01*
X13480791Y-11834404D02*
X13480791Y-12034404D01*
X13480791Y-11843927D02*
X13499838Y-11834404D01*
X13499838Y-11834404D02*
X13537933Y-11834404D01*
X13537933Y-11834404D02*
X13556981Y-11843927D01*
X13556981Y-11843927D02*
X13566505Y-11853451D01*
X13566505Y-11853451D02*
X13576029Y-11872499D01*
X13576029Y-11872499D02*
X13576029Y-11929642D01*
X13576029Y-11929642D02*
X13566505Y-11948689D01*
X13566505Y-11948689D02*
X13556981Y-11958213D01*
X13556981Y-11958213D02*
X13537933Y-11967737D01*
X13537933Y-11967737D02*
X13499838Y-11967737D01*
X13499838Y-11967737D02*
X13480791Y-11958213D01*
X13661743Y-11948689D02*
X13671267Y-11958213D01*
X13671267Y-11958213D02*
X13661743Y-11967737D01*
X13661743Y-11967737D02*
X13652219Y-11958213D01*
X13652219Y-11958213D02*
X13661743Y-11948689D01*
X13661743Y-11948689D02*
X13661743Y-11967737D01*
X13661743Y-11843927D02*
X13671267Y-11853451D01*
X13671267Y-11853451D02*
X13661743Y-11862975D01*
X13661743Y-11862975D02*
X13652219Y-11853451D01*
X13652219Y-11853451D02*
X13661743Y-11843927D01*
X13661743Y-11843927D02*
X13661743Y-11862975D01*
M02*
