M48
; DRILL file {KiCad 7.0.7} date 2023 December 05, Tuesday 02:10:24
; FORMAT={-:-/ absolute / inch / decimal}
; #@! TF.CreationDate,2023-12-05T02:10:24+05:30
; #@! TF.GenerationSoftware,Kicad,Pcbnew,7.0.7
; #@! TF.FileFunction,Plated,1,2,PTH
FMAT,2
INCH
; #@! TA.AperFunction,Plated,PTH,ViaDrill
T1C0.0157
; #@! TA.AperFunction,Plated,PTH,ComponentDrill
T2C0.0276
; #@! TA.AperFunction,Plated,PTH,ComponentDrill
T3C0.0315
; #@! TA.AperFunction,Plated,PTH,ComponentDrill
T4C0.0354
; #@! TA.AperFunction,Plated,PTH,ComponentDrill
T5C0.0433
; #@! TA.AperFunction,Plated,PTH,ComponentDrill
T6C0.0512
%
G90
G05
T1
X5.4484Y-3.522
T2
X5.9933Y-3.3173
X5.9933Y-3.5173
T3
X5.4736Y-3.8157
X5.4748Y-4.2012
X5.4799Y-3.9724
X5.6717Y-4.2012
X5.6768Y-3.9724
X5.7736Y-3.8157
X5.8429Y-4.1906
X5.8961Y-3.9646
X5.9413Y-4.1906
X5.9945Y-3.9646
T4
X5.4429Y-3.1327
X5.5429Y-3.1327
X5.7544Y-3.1296
X5.8544Y-3.1296
T5
X5.5157Y-3.6801
X5.5193Y-3.4409
X5.6157Y-3.6801
X5.6193Y-3.4409
X5.7157Y-3.6801
X5.7193Y-3.4409
T6
X5.0169Y-3.239
X5.0262Y-3.7266
X5.0344Y-4.2238
X5.2169Y-3.239
X5.2262Y-3.7266
X5.2344Y-4.2238
T0
M30
